<svg width="1120" height="134" viewBox="0 0 1120 134" fill="none" xmlns="http://www.w3.org/2000/svg">
<path d="M12.4272 99.1255L0 98.1293V132H1120V1L1112.23 2.4943L1098.25 13.9506L1090.49 15.943L1076.5 14.9468L1060.97 9.96578L1051.65 10.4639L1037.67 21.4221L1028.35 28.3954H1015.92L1003.49 21.9202L995.164 21.4221H986.408L969.32 37.3612L964.66 38.3574L956.893 39.3536L949.126 35.8669L936.699 14.9468L928.932 12.4563L921.165 13.4525L905.631 30.3878L896.31 32.3802L879.223 29.3916L869.903 26.9011H857.476L845.048 36.365L837.281 39.8517L821.747 40.8479L809.32 45.8289L801.553 46.8251L793.786 45.8289L776.699 32.8783L762.718 31.8821L745.631 45.3308L739.417 47.3232L730.097 46.8251L711.456 38.3574L697.476 37.8593L686.602 32.3802L678.835 28.3954L671.068 27.3992L664.854 28.8935L649.32 47.8213L644.66 50.8099L638.446 51.308L630.679 46.327L615.146 19.9278L610.485 17.9354H607.379L599.612 19.4297L587.184 34.3726L580.971 37.3612L568.544 38.3574L553.01 48.3194L548.349 49.8137H540.582L531.262 47.8213L521.942 43.3384L514.175 42.3422L501.747 44.8327L493.98 53.3004L486.213 56.289L478.446 57.2852L464.466 54.7947L453.592 51.8061L442.718 51.308L438.058 49.8137L425.631 44.3346L417.864 42.8403L410.097 44.3346L397.67 65.7529L388.349 73.7224H379.029L365.048 68.2433L357.281 67.2471L344.854 66.749L333.98 74.2205L323.107 78.2053L316.893 78.7034L304.466 72.7262L290.485 70.2357L281.165 71.2319L262.524 93.6464L254.757 94.6426L242.33 90.6578L225.243 86.673H217.476L208.155 83.1863L194.175 81.692L184.854 83.1863L172.427 95.6388L160 98.1293L152.233 99.1255L141.359 100.62L124.272 101.616L114.951 99.1255L104.078 93.6464L90.0971 92.6502L77.6699 89.6616L66.7961 87.6692L60.5825 88.1673L54.3689 92.1521L41.9417 101.616L34.1747 103.608L24.8544 103.11L12.4272 99.1255Z" fill="url(#paint0_linear_1099_51323)" fill-opacity="0.3"/>
<path d="M1120 1C1104 1 1104 16.2351 1088 16.2351C1072 16.2351 1072.67 9.84179 1056 9.84179C1039.33 9.84179 1040.67 28.6136 1024 28.6136C1007.33 28.6136 1010 21.0777 992 21.0777C974 21.0777 978.667 39.387 960 39.387C941.333 39.387 944 12.4263 928 12.4263C912 12.4263 913.333 32.0959 896 32.0959C878.667 32.0959 881.333 26.7092 864 26.7092C846.667 26.7092 849.333 40.1759 832 40.1759C814.667 40.1759 816.667 46.7052 800 46.7052C783.333 46.7052 784.667 32.0143 768 32.0143C751.333 32.0143 753.333 47.467 736 47.467C718.667 47.467 722.667 38.1355 704 38.1355C685.333 38.1355 688.667 27.743 672 27.743C655.333 27.743 657.333 51.4662 640 51.4662C622.667 51.4662 625.333 17.5954 608 17.5954C590.667 17.5954 592.667 37.8362 576 37.8362C559.333 37.8362 562.667 49.9427 544 49.9427C525.333 49.9427 530 42.5972 512 42.5972C494 42.5972 498.667 57.5602 480 57.5602C461.333 57.5602 466 51.7927 448 51.7927C430 51.7927 433.333 43.0597 416 43.0597C398.667 43.0597 401.334 74.4276 384 74.4276C366.667 74.4276 370.667 66.7557 352 66.7557C333.333 66.7557 336 78.7533 320 78.7533C304 78.7533 306 70.1836 288 70.1836C270 70.1836 272.667 94.9406 256 94.9406C239.334 94.9406 242.667 87.4863 224 87.4863C205.334 87.4863 210 82.0724 192 82.0724C174 82.0724 177.334 98.6677 160 98.6677C142.667 98.6677 146.667 102.15 128 102.15C109.334 102.15 114.667 92.9818 96.0002 92.9818C77.3336 92.9818 80.0001 88.0848 64.0001 88.0848C48.0001 88.0848 48.0002 104 32.0002 104C16.0002 104 17.3336 98.3957 0.000244141 98.3957" stroke="#4C17ED" stroke-width="2"/>
<path d="M779 35.5L779 133.422" stroke="#4C17ED" stroke-width="2"/>
<circle cx="779" cy="34" r="7" fill="white" stroke="#4C17ED" stroke-width="2"/>
<rect x="793" y="12" width="87" height="52" rx="8" fill="white"/>
<path d="M803.372 30L806.78 21.672H807.596L810.992 30H809.768L806.972 22.956H807.392L804.572 30H803.372ZM804.992 28.116V27.132H809.372V28.116H804.992ZM814.229 30.12C813.765 30.12 813.345 30.016 812.969 29.808C812.601 29.592 812.313 29.296 812.105 28.92C811.897 28.544 811.793 28.108 811.793 27.612V24.3H812.873V27.564C812.873 27.876 812.925 28.148 813.029 28.38C813.141 28.604 813.301 28.776 813.509 28.896C813.717 29.016 813.961 29.076 814.241 29.076C814.665 29.076 814.997 28.944 815.237 28.68C815.477 28.408 815.597 28.036 815.597 27.564V24.3H816.677V27.612C816.677 28.108 816.573 28.544 816.365 28.92C816.157 29.296 815.869 29.592 815.501 29.808C815.141 30.016 814.717 30.12 814.229 30.12ZM820.488 32.508C819.904 32.508 819.384 32.4 818.928 32.184C818.48 31.968 818.12 31.664 817.848 31.272L818.544 30.564C818.776 30.86 819.052 31.084 819.372 31.236C819.692 31.396 820.072 31.476 820.512 31.476C821.096 31.476 821.556 31.32 821.892 31.008C822.236 30.704 822.408 30.292 822.408 29.772V28.356L822.6 27.072L822.408 25.8V24.3H823.488V29.772C823.488 30.316 823.36 30.792 823.104 31.2C822.856 31.608 822.504 31.928 822.048 32.16C821.6 32.392 821.08 32.508 820.488 32.508ZM820.488 29.904C819.968 29.904 819.5 29.78 819.084 29.532C818.676 29.284 818.352 28.944 818.112 28.512C817.872 28.072 817.752 27.58 817.752 27.036C817.752 26.492 817.872 26.008 818.112 25.584C818.352 25.152 818.676 24.812 819.084 24.564C819.5 24.308 819.968 24.18 820.488 24.18C820.936 24.18 821.332 24.268 821.676 24.444C822.02 24.62 822.292 24.868 822.492 25.188C822.7 25.5 822.812 25.868 822.828 26.292V27.804C822.804 28.22 822.688 28.588 822.48 28.908C822.28 29.22 822.008 29.464 821.664 29.64C821.32 29.816 820.928 29.904 820.488 29.904ZM820.704 28.884C821.056 28.884 821.364 28.808 821.628 28.656C821.9 28.504 822.108 28.292 822.252 28.02C822.396 27.74 822.468 27.416 822.468 27.048C822.468 26.68 822.392 26.36 822.24 26.088C822.096 25.808 821.892 25.592 821.628 25.44C821.364 25.28 821.052 25.2 820.692 25.2C820.332 25.2 820.016 25.28 819.744 25.44C819.472 25.592 819.256 25.808 819.096 26.088C818.944 26.36 818.868 26.676 818.868 27.036C818.868 27.396 818.944 27.716 819.096 27.996C819.256 28.276 819.472 28.496 819.744 28.656C820.024 28.808 820.344 28.884 820.704 28.884ZM828.853 30V21.672H829.969V30H828.853ZM827.149 22.68V21.672H829.849V22.68H827.149ZM834.322 30.12C833.77 30.12 833.274 29.992 832.834 29.736C832.402 29.48 832.058 29.136 831.802 28.704C831.546 28.272 831.418 27.792 831.418 27.264C831.418 26.528 831.674 25.796 832.186 25.068L834.634 21.672H835.942L833.434 25.092L833.026 25.308C833.122 25.14 833.238 25 833.374 24.888C833.51 24.768 833.678 24.676 833.878 24.612C834.078 24.548 834.314 24.516 834.586 24.516C835.074 24.516 835.514 24.632 835.906 24.864C836.306 25.096 836.626 25.416 836.866 25.824C837.114 26.224 837.238 26.692 837.238 27.228C837.238 27.756 837.106 28.24 836.842 28.68C836.586 29.12 836.234 29.472 835.786 29.736C835.346 29.992 834.858 30.12 834.322 30.12ZM834.322 29.064C834.658 29.064 834.958 28.984 835.222 28.824C835.494 28.656 835.706 28.436 835.858 28.164C836.018 27.884 836.098 27.572 836.098 27.228C836.098 26.884 836.018 26.576 835.858 26.304C835.706 26.024 835.494 25.804 835.222 25.644C834.958 25.484 834.658 25.404 834.322 25.404C833.986 25.404 833.682 25.484 833.41 25.644C833.146 25.804 832.934 26.024 832.774 26.304C832.622 26.576 832.546 26.884 832.546 27.228C832.546 27.572 832.622 27.884 832.774 28.164C832.934 28.444 833.146 28.664 833.41 28.824C833.682 28.984 833.986 29.064 834.322 29.064ZM838.563 31.32L839.307 29.892L839.691 29.796C839.651 29.884 839.599 29.956 839.535 30.012C839.479 30.068 839.407 30.096 839.319 30.096C839.151 30.096 838.995 30.028 838.851 29.892C838.715 29.748 838.647 29.572 838.647 29.364C838.647 29.132 838.723 28.94 838.875 28.788C839.027 28.628 839.219 28.548 839.451 28.548C839.659 28.548 839.843 28.628 840.003 28.788C840.163 28.94 840.243 29.132 840.243 29.364C840.243 29.452 840.223 29.56 840.183 29.688C840.151 29.808 840.083 29.964 839.979 30.156L839.187 31.656L838.563 31.32ZM841.412 29.316L844.484 26.076C844.796 25.756 845.04 25.48 845.216 25.248C845.392 25.008 845.516 24.788 845.588 24.588C845.668 24.388 845.708 24.18 845.708 23.964C845.708 23.54 845.572 23.208 845.3 22.968C845.028 22.728 844.676 22.608 844.244 22.608C843.82 22.608 843.448 22.712 843.128 22.92C842.808 23.12 842.524 23.432 842.276 23.856L841.484 23.196C841.812 22.652 842.208 22.244 842.672 21.972C843.136 21.692 843.672 21.552 844.28 21.552C844.792 21.552 845.236 21.652 845.612 21.852C845.996 22.052 846.292 22.332 846.5 22.692C846.708 23.052 846.812 23.472 846.812 23.952C846.812 24.296 846.768 24.604 846.68 24.876C846.6 25.148 846.452 25.428 846.236 25.716C846.028 25.996 845.736 26.332 845.36 26.724L842.876 29.28L841.412 29.316ZM841.412 30V29.316L842.372 28.992H847.004V30H841.412ZM851.468 30.12C850.844 30.12 850.272 29.944 849.752 29.592C849.24 29.24 848.832 28.744 848.528 28.104C848.224 27.456 848.072 26.696 848.072 25.824C848.072 24.952 848.22 24.196 848.516 23.556C848.82 22.916 849.228 22.424 849.74 22.08C850.252 21.728 850.816 21.552 851.432 21.552C852.064 21.552 852.636 21.728 853.148 22.08C853.66 22.424 854.064 22.916 854.36 23.556C854.664 24.196 854.816 24.956 854.816 25.836C854.816 26.708 854.664 27.468 854.36 28.116C854.064 28.756 853.66 29.252 853.148 29.604C852.644 29.948 852.084 30.12 851.468 30.12ZM851.444 29.052C851.884 29.052 852.268 28.932 852.596 28.692C852.932 28.444 853.196 28.08 853.388 27.6C853.58 27.12 853.676 26.528 853.676 25.824C853.676 25.12 853.58 24.532 853.388 24.06C853.196 23.58 852.932 23.22 852.596 22.98C852.26 22.732 851.872 22.608 851.432 22.608C851 22.608 850.616 22.732 850.28 22.98C849.944 23.22 849.68 23.58 849.488 24.06C849.304 24.532 849.212 25.12 849.212 25.824C849.212 26.528 849.304 27.12 849.488 27.6C849.68 28.08 849.944 28.444 850.28 28.692C850.616 28.932 851.004 29.052 851.444 29.052ZM855.755 29.316L858.827 26.076C859.139 25.756 859.383 25.48 859.559 25.248C859.735 25.008 859.859 24.788 859.931 24.588C860.011 24.388 860.051 24.18 860.051 23.964C860.051 23.54 859.915 23.208 859.643 22.968C859.371 22.728 859.019 22.608 858.587 22.608C858.163 22.608 857.791 22.712 857.471 22.92C857.151 23.12 856.867 23.432 856.619 23.856L855.827 23.196C856.155 22.652 856.551 22.244 857.015 21.972C857.479 21.692 858.015 21.552 858.623 21.552C859.135 21.552 859.579 21.652 859.955 21.852C860.339 22.052 860.635 22.332 860.843 22.692C861.051 23.052 861.155 23.472 861.155 23.952C861.155 24.296 861.111 24.604 861.023 24.876C860.943 25.148 860.795 25.428 860.579 25.716C860.371 25.996 860.079 26.332 859.703 26.724L857.219 29.28L855.755 29.316ZM855.755 30V29.316L856.715 28.992H861.347V30H855.755ZM864.828 30.12C864.26 30.12 863.752 30.02 863.304 29.82C862.864 29.612 862.492 29.312 862.188 28.92L862.956 28.152C863.14 28.432 863.392 28.656 863.712 28.824C864.04 28.984 864.404 29.064 864.804 29.064C865.18 29.064 865.508 28.992 865.788 28.848C866.076 28.704 866.3 28.504 866.46 28.248C866.628 27.984 866.712 27.672 866.712 27.312C866.712 26.944 866.632 26.632 866.472 26.376C866.312 26.12 866.096 25.928 865.824 25.8C865.56 25.664 865.268 25.596 864.948 25.596C864.62 25.596 864.32 25.636 864.048 25.716C863.784 25.796 863.532 25.932 863.292 26.124L863.304 25.404C863.44 25.236 863.596 25.1 863.772 24.996C863.948 24.892 864.148 24.812 864.372 24.756C864.596 24.7 864.856 24.672 865.152 24.672C865.728 24.672 866.216 24.792 866.616 25.032C867.016 25.272 867.32 25.596 867.528 26.004C867.744 26.412 867.852 26.868 867.852 27.372C867.852 27.9 867.72 28.372 867.456 28.788C867.2 29.204 866.844 29.532 866.388 29.772C865.932 30.004 865.412 30.12 864.828 30.12ZM863.292 26.124L862.68 25.512L863.052 21.672H864.084L863.664 25.62L863.292 26.124ZM863.28 22.68L863.052 21.672H867.432V22.68H863.28Z" fill="black" fill-opacity="0.5"/>
<path d="M808.66 54.2C807.647 54.2 806.76 54 806 53.6C805.253 53.2 804.573 52.6133 803.96 51.84L805.5 50.3C805.887 50.86 806.34 51.3133 806.86 51.66C807.38 52.0067 808.007 52.18 808.74 52.18C809.513 52.18 810.127 52.0133 810.58 51.68C811.047 51.3467 811.28 50.8733 811.28 50.26C811.28 49.7933 811.16 49.4133 810.92 49.12C810.68 48.8267 810.36 48.5867 809.96 48.4C809.573 48.2 809.14 48.0267 808.66 47.88C808.193 47.72 807.72 47.5467 807.24 47.36C806.773 47.16 806.34 46.9133 805.94 46.62C805.553 46.3267 805.24 45.9467 805 45.48C804.76 45.0133 804.64 44.42 804.64 43.7C804.64 42.8733 804.84 42.1733 805.24 41.6C805.653 41.0133 806.207 40.5667 806.9 40.26C807.593 39.9533 808.367 39.8 809.22 39.8C810.047 39.8 810.813 39.98 811.52 40.34C812.227 40.7 812.807 41.16 813.26 41.72L811.72 43.26C811.32 42.8067 810.907 42.4533 810.48 42.2C810.067 41.9467 809.627 41.82 809.16 41.82C808.413 41.82 807.84 41.9667 807.44 42.26C807.04 42.54 806.84 42.9667 806.84 43.54C806.84 43.9667 806.96 44.3133 807.2 44.58C807.453 44.8333 807.78 45.0533 808.18 45.24C808.58 45.4133 809.013 45.58 809.48 45.74C809.96 45.9 810.44 46.08 810.92 46.28C811.4 46.48 811.84 46.74 812.24 47.06C812.64 47.3667 812.96 47.7667 813.2 48.26C813.453 48.7533 813.58 49.3733 813.58 50.12C813.58 51.3733 813.133 52.3667 812.24 53.1C811.36 53.8333 810.167 54.2 808.66 54.2ZM808.34 56V38H809.94V56H808.34ZM820.16 54.2C819.2 54.2 818.366 54.0267 817.66 53.68C816.953 53.3333 816.4 52.8533 816 52.24C815.613 51.6133 815.42 50.9067 815.42 50.12C815.42 49.4933 815.54 48.92 815.78 48.4C816.033 47.8667 816.393 47.4133 816.86 47.04C817.34 46.6667 817.906 46.4 818.56 46.24L818.5 46.88C817.966 46.7333 817.513 46.4933 817.14 46.16C816.78 45.8267 816.506 45.4333 816.32 44.98C816.133 44.5267 816.04 44.0533 816.04 43.56C816.04 42.8133 816.213 42.16 816.56 41.6C816.92 41.0267 817.413 40.58 818.04 40.26C818.666 39.94 819.373 39.78 820.16 39.78C820.96 39.78 821.666 39.94 822.28 40.26C822.906 40.58 823.393 41.0267 823.74 41.6C824.1 42.16 824.28 42.8133 824.28 43.56C824.28 44.0533 824.186 44.5267 824 44.98C823.813 45.4333 823.54 45.8267 823.18 46.16C822.82 46.4933 822.366 46.7333 821.82 46.88L821.76 46.24C822.426 46.4 822.993 46.6667 823.46 47.04C823.926 47.4133 824.28 47.8667 824.52 48.4C824.773 48.92 824.9 49.4933 824.9 50.12C824.9 50.9067 824.706 51.6133 824.32 52.24C823.933 52.8533 823.38 53.3333 822.66 53.68C821.953 54.0267 821.12 54.2 820.16 54.2ZM820.16 52.12C820.653 52.12 821.086 52.02 821.46 51.82C821.846 51.62 822.146 51.3467 822.36 51C822.586 50.6533 822.7 50.26 822.7 49.82C822.7 49.3667 822.586 48.9733 822.36 48.64C822.146 48.2933 821.846 48.02 821.46 47.82C821.086 47.62 820.653 47.52 820.16 47.52C819.666 47.52 819.226 47.62 818.84 47.82C818.466 48.02 818.166 48.2933 817.94 48.64C817.726 48.9733 817.62 49.3667 817.62 49.82C817.62 50.26 817.726 50.6533 817.94 51C818.166 51.3467 818.466 51.62 818.84 51.82C819.226 52.02 819.666 52.12 820.16 52.12ZM820.16 45.72C820.746 45.72 821.226 45.5333 821.6 45.16C821.973 44.7867 822.16 44.3067 822.16 43.72C822.16 43.1333 821.973 42.66 821.6 42.3C821.226 41.9267 820.746 41.74 820.16 41.74C819.586 41.74 819.106 41.9267 818.72 42.3C818.346 42.66 818.16 43.1333 818.16 43.72C818.16 44.3067 818.346 44.7867 818.72 45.16C819.106 45.5333 819.586 45.72 820.16 45.72ZM826.04 52.64L831.2 47.16C831.627 46.7067 831.974 46.3 832.24 45.94C832.507 45.58 832.7 45.24 832.82 44.92C832.94 44.6 833 44.2733 833 43.94C833 43.3133 832.794 42.8267 832.38 42.48C831.98 42.12 831.467 41.94 830.84 41.94C830.174 41.94 829.587 42.1067 829.08 42.44C828.574 42.7733 828.12 43.2933 827.72 44L826.12 42.68C826.667 41.7333 827.34 41.02 828.14 40.54C828.94 40.0467 829.867 39.8 830.92 39.8C831.787 39.8 832.547 39.9733 833.2 40.32C833.854 40.6667 834.36 41.1533 834.72 41.78C835.08 42.3933 835.26 43.1067 835.26 43.92C835.26 44.5067 835.187 45.0333 835.04 45.5C834.907 45.9533 834.674 46.4133 834.34 46.88C834.007 47.3333 833.547 47.8667 832.96 48.48L829 52.58L826.04 52.64ZM826.04 54V52.64L828.02 51.94H835.54V54H826.04ZM839.201 54.2C838.774 54.2 838.421 54.06 838.141 53.78C837.874 53.4867 837.741 53.1333 837.741 52.72C837.741 52.2933 837.874 51.94 838.141 51.66C838.421 51.38 838.774 51.24 839.201 51.24C839.627 51.24 839.974 51.38 840.241 51.66C840.521 51.94 840.661 52.2933 840.661 52.72C840.661 53.1333 840.521 53.4867 840.241 53.78C839.974 54.06 839.627 54.2 839.201 54.2ZM847.022 54.2C846.088 54.2 845.242 54.0333 844.482 53.7C843.735 53.3533 843.102 52.8533 842.582 52.2L844.142 50.64C844.422 51.0667 844.815 51.4067 845.322 51.66C845.828 51.9133 846.382 52.04 846.982 52.04C847.555 52.04 848.048 51.9333 848.462 51.72C848.875 51.5067 849.195 51.2067 849.422 50.82C849.662 50.4333 849.782 49.9867 849.782 49.48C849.782 48.9467 849.662 48.4933 849.422 48.12C849.195 47.7467 848.862 47.46 848.422 47.26C847.995 47.0467 847.475 46.94 846.862 46.94C846.622 46.94 846.375 46.96 846.122 47C845.868 47.0267 845.642 47.0733 845.442 47.14L846.462 45.82C846.742 45.7133 847.035 45.6267 847.342 45.56C847.662 45.48 847.968 45.44 848.262 45.44C848.982 45.44 849.628 45.6133 850.202 45.96C850.788 46.3067 851.248 46.7933 851.582 47.42C851.928 48.0333 852.102 48.76 852.102 49.6C852.102 50.5067 851.888 51.3067 851.462 52C851.035 52.6933 850.442 53.2333 849.682 53.62C848.922 54.0067 848.035 54.2 847.022 54.2ZM845.442 47.14V45.78L849.182 41.42L851.942 41.36L848.042 45.84L845.442 47.14ZM843.282 42.06V40H851.942V41.36L849.962 42.06H843.282ZM854.422 54V40H856.022L861.842 49.58H860.802L866.622 40H868.222V54H865.922V44.04L866.442 44.18L862.122 51.28H860.522L856.202 44.18L856.722 44.04V54H854.422Z" fill="black"/>
<defs>
<linearGradient id="paint0_linear_1099_51323" x1="560" y1="1" x2="560" y2="132" gradientUnits="userSpaceOnUse">
<stop stop-color="#4C17ED"/>
<stop offset="1" stop-color="#4C17ED" stop-opacity="0"/>
</linearGradient>
</defs>
</svg>
