<svg width="20" height="20" viewBox="0 0 20 20" fill="none" xmlns="http://www.w3.org/2000/svg">
<path d="M3.75 16.2493C3.75 13.4441 6.02411 11.17 8.82936 11.17C11.6346 11.17 13.9087 13.4441 13.9087 16.2493H12.6389C12.6389 14.1454 10.9333 12.4398 8.82936 12.4398C6.72542 12.4398 5.01984 14.1454 5.01984 16.2493H3.75ZM8.82936 10.5351C6.7246 10.5351 5.01984 8.8303 5.01984 6.72554C5.01984 4.62078 6.7246 2.91602 8.82936 2.91602C10.9341 2.91602 12.6389 4.62078 12.6389 6.72554C12.6389 8.8303 10.9341 10.5351 8.82936 10.5351ZM8.82936 9.26522C10.2325 9.26522 11.369 8.12871 11.369 6.72554C11.369 5.32236 10.2325 4.18586 8.82936 4.18586C7.42619 4.18586 6.28968 5.32236 6.28968 6.72554C6.28968 8.12871 7.42619 9.26522 8.82936 9.26522ZM14.0889 11.6162C15.8544 12.412 17.0833 14.1871 17.0833 16.2493H15.8135C15.8135 14.7027 14.8918 13.3713 13.5676 12.7745L14.0889 11.6162ZM13.6523 4.44821C14.921 4.97127 15.8135 6.21989 15.8135 7.67792C15.8135 9.50027 14.4193 10.9955 12.6389 11.1558V9.87767C13.7162 9.72376 14.5436 8.79792 14.5436 7.67792C14.5436 6.80132 14.0367 6.04365 13.2998 5.68195L13.6523 4.44821Z" fill="white"/>
</svg>
